<?xml version="1.0" standalone="no"?>
<!DOCTYPE svg PUBLIC "-//W3C//DTD SVG 20010904//EN"
 "http://www.w3.org/TR/2001/REC-SVG-20010904/DTD/svg10.dtd">
<svg version="1.0" xmlns="http://www.w3.org/2000/svg"
 width="305.000000pt" height="305.000000pt" viewBox="0 0 305.000000 305.000000"
 preserveAspectRatio="xMidYMid meet">
<metadata>
Created by potrace 1.11, written by Peter Selinger 2001-2013
</metadata>
<g transform="translate(0.000000,305.000000) scale(0.100000,-0.100000)"
fill="#000000" stroke="none">
<path d="M1365 2789 c-395 -70 -656 -280 -832 -669 l-42 -95 -107 -42 c-119
-47 -146 -67 -174 -131 -39 -87 -24 -171 99 -590 151 -510 224 -690 316 -774
34 -32 39 -33 118 -14 60 14 65 12 73 -30 3 -15 18 -69 35 -120 29 -90 31 -94
58 -94 16 0 59 9 96 21 60 18 70 19 96 6 23 -11 41 -12 80 -4 41 8 52 7 67 -7
13 -11 37 -16 80 -16 60 0 115 12 303 66 47 13 95 26 105 29 10 2 114 31 229
63 116 33 263 75 329 93 90 26 121 39 128 54 6 13 37 31 85 50 73 28 122 68
130 109 2 9 5 24 7 34 3 9 5 27 5 38 1 15 15 29 49 47 l47 25 0 63 c-1 35 -4
100 -8 145 l-7 81 56 19 c30 10 60 24 66 31 18 22 20 154 4 233 -21 97 -20 92
-62 250 -19 74 -39 151 -44 170 -8 34 -61 222 -80 285 -80 260 -141 396 -202
451 -64 58 -78 59 -192 23 -56 -18 -104 -34 -108 -36 -4 -2 -16 5 -26 15 -44
44 -144 110 -222 147 -118 56 -214 77 -365 80 -77 2 -162 -1 -190 -6z"/>
</g>
</svg>
